<svg width="780" height="780" viewBox="0 0 780 780" fill="none" xmlns="http://www.w3.org/2000/svg">
<path d="M194 642C161.333 642 131.933 638.033 105.8 630.1C79.6667 621.7 54.7 607.233 30.9 586.7C24.8333 581.567 20.1667 575.733 16.9 569.2C13.6333 562.667 12 556.133 12 549.6C12 538.867 15.7333 529.533 23.2 521.6C31.1333 513.2 40.9333 509 52.6 509C61.4667 509 69.4 511.8 76.4 517.4C94.1333 531.867 111.633 542.833 128.9 550.3C146.633 557.767 168.333 561.5 194 561.5C211.267 561.5 227.133 558.933 241.6 553.8C256.067 548.2 267.733 540.967 276.6 532.1C285.467 522.767 289.9 512.267 289.9 500.6C289.9 486.6 285.7 474.7 277.3 464.9C268.9 455.1 256.067 446.933 238.8 440.4C221.533 433.4 199.6 428.033 173 424.3C147.8 420.567 125.633 414.967 106.5 407.5C87.3667 399.567 71.2667 389.767 58.2 378.1C45.6 365.967 36.0333 351.967 29.5 336.1C22.9667 319.767 19.7 301.567 19.7 281.5C19.7 251.167 27.4 225.267 42.8 203.8C58.6667 182.333 79.9 166 106.5 154.8C133.1 143.6 162.5 138 194.7 138C225.033 138 253.033 142.667 278.7 152C304.833 160.867 326.067 172.3 342.4 186.3C355.933 197.033 362.7 209.4 362.7 223.4C362.7 233.667 358.733 243 350.8 251.4C342.867 259.8 333.533 264 322.8 264C315.8 264 309.5 261.9 303.9 257.7C296.433 251.167 286.4 245.1 273.8 239.5C261.2 233.433 247.9 228.533 233.9 224.8C219.9 220.6 206.833 218.5 194.7 218.5C174.633 218.5 157.6 221.067 143.6 226.2C130.067 231.333 119.8 238.333 112.8 247.2C105.8 256.067 102.3 266.333 102.3 278C102.3 292 106.267 303.667 114.2 313C122.6 321.867 134.5 329.1 149.9 334.7C165.3 339.833 183.733 344.5 205.2 348.7C233.2 353.833 257.7 359.9 278.7 366.9C300.167 373.9 317.9 383 331.9 394.2C345.9 404.933 356.4 418.7 363.4 435.5C370.4 451.833 373.9 471.9 373.9 495.7C373.9 526.033 365.5 552.167 348.7 574.1C331.9 596.033 309.733 612.833 282.2 624.5C255.133 636.167 225.733 642 194 642Z" fill="#FF2F4F"/>
<path d="M498.276 635C485.209 635 474.476 631.033 466.076 623.1C458.142 614.7 454.176 604.433 454.176 592.3V187.7C454.176 175.567 458.142 165.533 466.076 157.6C474.476 149.2 484.742 145 496.876 145H724.376C736.509 145 746.542 148.967 754.476 156.9C762.876 164.367 767.076 174.167 767.076 186.3C767.076 196.567 762.876 205.667 754.476 213.6C746.542 221.533 736.509 225.5 724.376 225.5H535.376L541.676 217.1V357.8L536.776 348.7H692.876C705.009 348.7 715.042 352.667 722.976 360.6C731.376 368.067 735.576 377.867 735.576 390C735.576 400.267 731.376 409.367 722.976 417.3C715.042 425.233 705.009 429.2 692.876 429.2H535.376L541.676 422.9V592.3C541.676 604.433 537.242 614.7 528.376 623.1C519.976 631.033 509.942 635 498.276 635Z" fill="#FF2F4F"/>
</svg>
